name C:\Users\u0101727\Documents\MyRepositories\upper-imu-dc\Results\main_tracking\Case_14\ABD01_orientations_groundFrame.mot
datacolumns 13
datarows 18
range 8.06000000 8.23000000
endheader 
time	radius_imu_[0][0]	radius_imu_[0][1]	radius_imu_[0][2]	radius_imu_[1][0]	radius_imu_[1][1]	radius_imu_[1][2]	radius_imu_[2][0]	radius_imu_[2][1]	radius_imu_[2][2]	radius_imu_x	radius_imu_y	radius_imu_z	
          8.06000000	          0.98821864	         -0.07409285	          0.13391853	         -0.14989621	         -0.29187208	          0.94463846	         -0.03090388	         -0.95358321	         -0.29953967	         -1.87786145	          0.13432208	          0.07483615	
          8.07000000	          0.98723352	         -0.07247766	          0.14183428	         -0.15656573	         -0.27789403	          0.94776689	         -0.02927703	         -0.95787363	         -0.28569382	         -1.86357270	          0.14231418	          0.07328344	
          8.08000000	          0.98637453	         -0.07061022	          0.14859165	         -0.16212872	         -0.26392457	          0.95081970	         -0.02792060	         -0.96195531	         -0.27177642	         -1.84920648	          0.14914396	          0.07146370	
          8.09000000	          0.98563999	         -0.06850488	          0.15434015	         -0.16672805	         -0.25002191	          0.95377712	         -0.02674997	         -0.96581371	         -0.25785328	         -1.83483399	          0.15495957	          0.06939135	
          8.10000000	          0.98501535	         -0.06617580	          0.15926558	         -0.17054416	         -0.23623921	          0.95661159	         -0.02567977	         -0.96943891	         -0.24398514	         -1.82052359	          0.15994669	          0.06708171	
          8.11000000	          0.98448054	         -0.06363869	          0.16354872	         -0.17375548	         -0.22261897	          0.95929653	         -0.02463933	         -0.97282625	         -0.23022161	         -1.80633189	          0.16428674	          0.06455208	
          8.12000000	          0.98401925	         -0.06091351	          0.16731905	         -0.17649309	         -0.20918951	          0.96181596	         -0.02358620	         -0.97597607	         -0.21659732	         -1.79229752	          0.16810975	          0.06182388	
          8.13000000	          0.98362880	         -0.05802740	          0.17060832	         -0.17879435	         -0.19596215	          0.96417395	         -0.02251573	         -0.97889308	         -0.20312898	         -1.77843655	          0.17144701	          0.05892489	
          8.14000000	          0.98332910	         -0.05501615	          0.17331215	         -0.18056349	         -0.18292822	          0.96640266	         -0.02146407	         -0.98158570	         -0.18981255	         -1.76473899	          0.17419173	          0.05589059	
          8.15000000	          0.98316798	         -0.05192326	          0.17517051	         -0.18154996	         -0.17005652	          0.96856615	         -0.02050223	         -0.98406542	         -0.17662079	         -1.75116732	          0.17607895	          0.05276318	
          8.16000000	          0.98321992	         -0.04879635	          0.17577687	         -0.18135511	         -0.15729307	          0.97075703	         -0.01972091	         -0.98634568	         -0.16350315	         -1.73765873	          0.17669487	          0.04958844	
          8.17000000	          0.98357557	         -0.04568223	          0.17462025	         -0.17947179	         -0.14456497	          0.97308316	         -0.01920864	         -0.98844024	         -0.15038924	         -1.72413239	          0.17552008	          0.04641171	
          8.18000000	          0.98432118	         -0.04262249	          0.17115821	         -0.17535609	         -0.13178872	          0.97564439	         -0.01902767	         -0.99036107	         -0.13719654	         -1.71050173	          0.17200511	          0.04327437	
          8.19000000	          0.98551041	         -0.03965056	          0.16491530	         -0.16852558	         -0.11888285	          0.97850192	         -0.01919255	         -0.99211627	         -0.12384242	         -1.69669026	          0.16567214	          0.04021184	
          8.20000000	          0.98713509	         -0.03679041	          0.15559814	         -0.15867569	         -0.10578305	          0.98164758	         -0.01965557	         -0.99370841	         -0.11025991	         -1.68264879	          0.15623294	          0.03725264	
          8.21000000	          0.98910577	         -0.03405592	          0.14321305	         -0.14579970	         -0.09245744	          0.98498430	         -0.02030344	         -0.99513407	         -0.09641553	         -1.66837083	          0.14370717	          0.03441743	
          8.22000000	          0.99125431	         -0.03144989	          0.12816318	         -0.13028899	         -0.07891838	          0.98833024	         -0.02096845	         -0.99638486	         -0.08232576	         -1.65390229	          0.12851666	          0.03171673	
          8.23000000	          0.99336553	         -0.02896241	          0.11129283	         -0.11298041	         -0.06522708	          0.99145391	         -0.02145558	         -0.99745005	         -0.06806652	         -1.63934200	          0.11152387	          0.02914758	
